<svg xmlns="http://www.w3.org/2000/svg" viewBox="0 0 640 160" width="640" height="160">
  <defs>
    <linearGradient id="bg" x1="0" y1="0" x2="1" y2="1">
      <stop offset="0%" stop-color="#0d1117"/>
      <stop offset="100%" stop-color="#161b22"/>
    </linearGradient>
  </defs>
  <rect width="640" height="160" fill="url(#bg)" rx="8"/>
  <!-- Decorative elements -->
  <circle cx="80" cy="60" r="2" fill="#3fb950" opacity="0.15"/><circle cx="95" cy="45" r="1.5" fill="#3fb950" opacity="0.1"/><circle cx="70" cy="100" r="1" fill="#3fb950" opacity="0.12"/>
  <circle cx="560" cy="60" r="2" fill="#3fb950" opacity="0.15"/><circle cx="545" cy="100" r="1.5" fill="#3fb950" opacity="0.1"/><circle cx="570" cy="45" r="1" fill="#3fb950" opacity="0.12"/>
  <!-- Icon -->
  
  <!-- File grid -->
  <rect x="275" y="35" width="36" height="28" rx="3" fill="#21262d" stroke="#58a6ff" stroke-width="1"/>
  <text x="281" y="53" font-family="monospace" font-size="8" fill="#58a6ff">Docs</text>
  <rect x="318" y="35" width="36" height="28" rx="3" fill="#21262d" stroke="#3fb950" stroke-width="1"/>
  <text x="321" y="53" font-family="monospace" font-size="8" fill="#3fb950">img/</text>
  <rect x="275" y="70" width="36" height="28" rx="3" fill="#21262d" stroke="#e6edf3" stroke-width="0.5" opacity="0.6"/>
  <text x="278" y="88" font-family="monospace" font-size="8" fill="#8b949e">.bash</text>
  <rect x="318" y="70" width="36" height="28" rx="3" fill="#21262d" stroke="#f0883e" stroke-width="1"/>
  <text x="322" y="88" font-family="monospace" font-size="8" fill="#f0883e">run.sh</text>
  <!-- ls command above -->
  <text x="297" y="25" font-family="monospace" font-size="11" fill="#3fb950" opacity="0.4">ls -la</text>
  <!-- Accent bar -->
  <rect x="220" y="152" width="200" height="3" fill="#3fb950" opacity="0.5" rx="1.5"/>
</svg>
