<svg xmlns="http://www.w3.org/2000/svg" viewBox="0 0 640 160" width="640" height="160">
  <defs>
    <linearGradient id="bg" x1="0" y1="0" x2="1" y2="1">
      <stop offset="0%" stop-color="#0d1117"/>
      <stop offset="100%" stop-color="#161b22"/>
    </linearGradient>
  </defs>
  <rect width="640" height="160" fill="url(#bg)" rx="8"/>
  <!-- Decorative elements -->
  <circle cx="80" cy="60" r="2" fill="#f0883e" opacity="0.15"/><circle cx="95" cy="45" r="1.5" fill="#f0883e" opacity="0.1"/><circle cx="70" cy="100" r="1" fill="#f0883e" opacity="0.12"/>
  <circle cx="560" cy="60" r="2" fill="#f0883e" opacity="0.15"/><circle cx="545" cy="100" r="1.5" fill="#f0883e" opacity="0.1"/><circle cx="570" cy="45" r="1" fill="#f0883e" opacity="0.12"/>
  <!-- Icon -->
  
  <!-- Trash can -->
  <rect x="302" y="50" width="36" height="40" rx="3" fill="#21262d" stroke="#f85149" stroke-width="1.5"/>
  <line x1="310" y1="58" x2="310" y2="82" stroke="#f85149" stroke-width="1" opacity="0.5"/>
  <line x1="320" y1="58" x2="320" y2="82" stroke="#f85149" stroke-width="1" opacity="0.5"/>
  <line x1="330" y1="58" x2="330" y2="82" stroke="#f85149" stroke-width="1" opacity="0.5"/>
  <!-- Lid -->
  <rect x="296" y="44" width="48" height="6" rx="2" fill="#21262d" stroke="#f85149" stroke-width="1.5"/>
  <rect x="314" y="38" width="12" height="8" rx="2" fill="#21262d" stroke="#f85149" stroke-width="1"/>
  <!-- Warning -->
  <text x="290" y="118" font-family="monospace" font-size="9" fill="#f85149" opacity="0.25">rm -r (careful!)</text>
  <!-- Accent bar -->
  <rect x="220" y="152" width="200" height="3" fill="#f0883e" opacity="0.5" rx="1.5"/>
</svg>
