<svg xmlns="http://www.w3.org/2000/svg" viewBox="0 0 640 160" width="640" height="160">
  <defs>
    <linearGradient id="bg" x1="0" y1="0" x2="1" y2="1">
      <stop offset="0%" stop-color="#0d1117"/>
      <stop offset="100%" stop-color="#161b22"/>
    </linearGradient>
  </defs>
  <rect width="640" height="160" fill="url(#bg)" rx="8"/>
  <!-- Decorative elements -->
  <circle cx="80" cy="60" r="2" fill="#f85149" opacity="0.15"/><circle cx="95" cy="45" r="1.5" fill="#f85149" opacity="0.1"/><circle cx="70" cy="100" r="1" fill="#f85149" opacity="0.12"/>
  <circle cx="560" cy="60" r="2" fill="#f85149" opacity="0.15"/><circle cx="545" cy="100" r="1.5" fill="#f85149" opacity="0.1"/><circle cx="570" cy="45" r="1" fill="#f85149" opacity="0.12"/>
  <!-- Icon -->
  
  <!-- Permission grid -->
  <rect x="272" y="40" width="28" height="22" rx="2" fill="#3fb950" opacity="0.2" stroke="#3fb950" stroke-width="1"/>
  <text x="280" y="56" font-family="monospace" font-size="11" fill="#3fb950">r</text>
  <rect x="306" y="40" width="28" height="22" rx="2" fill="#3fb950" opacity="0.2" stroke="#3fb950" stroke-width="1"/>
  <text x="314" y="56" font-family="monospace" font-size="11" fill="#3fb950">w</text>
  <rect x="340" y="40" width="28" height="22" rx="2" fill="#3fb950" opacity="0.2" stroke="#3fb950" stroke-width="1"/>
  <text x="349" y="56" font-family="monospace" font-size="11" fill="#3fb950">x</text>
  <!-- Group row -->
  <rect x="272" y="68" width="28" height="22" rx="2" fill="#58a6ff" opacity="0.2" stroke="#58a6ff" stroke-width="1"/>
  <text x="280" y="84" font-family="monospace" font-size="11" fill="#58a6ff">r</text>
  <rect x="306" y="68" width="28" height="22" rx="2" fill="#30363d" stroke="#30363d" stroke-width="1"/>
  <text x="314" y="84" font-family="monospace" font-size="11" fill="#8b949e">-</text>
  <rect x="340" y="68" width="28" height="22" rx="2" fill="#58a6ff" opacity="0.2" stroke="#58a6ff" stroke-width="1"/>
  <text x="349" y="84" font-family="monospace" font-size="11" fill="#58a6ff">x</text>
  <!-- Other row -->
  <rect x="272" y="96" width="28" height="22" rx="2" fill="#f0883e" opacity="0.2" stroke="#f0883e" stroke-width="1"/>
  <text x="280" y="112" font-family="monospace" font-size="11" fill="#f0883e">r</text>
  <rect x="306" y="96" width="28" height="22" rx="2" fill="#30363d" stroke="#30363d" stroke-width="1"/>
  <text x="314" y="112" font-family="monospace" font-size="11" fill="#8b949e">-</text>
  <rect x="340" y="96" width="28" height="22" rx="2" fill="#30363d" stroke="#30363d" stroke-width="1"/>
  <text x="348" y="112" font-family="monospace" font-size="11" fill="#8b949e">-</text>
  <!-- Labels -->
  <text x="240" y="55" font-family="monospace" font-size="8" fill="#3fb950" opacity="0.5">u</text>
  <text x="240" y="83" font-family="monospace" font-size="8" fill="#58a6ff" opacity="0.5">g</text>
  <text x="240" y="111" font-family="monospace" font-size="8" fill="#f0883e" opacity="0.5">o</text>
  <!-- Accent bar -->
  <rect x="220" y="152" width="200" height="3" fill="#f85149" opacity="0.5" rx="1.5"/>
</svg>
