<svg xmlns="http://www.w3.org/2000/svg" viewBox="0 0 640 160" width="640" height="160">
  <defs>
    <linearGradient id="bg" x1="0" y1="0" x2="1" y2="1">
      <stop offset="0%" stop-color="#0d1117"/>
      <stop offset="100%" stop-color="#161b22"/>
    </linearGradient>
  </defs>
  <rect width="640" height="160" fill="url(#bg)" rx="8"/>
  <!-- Decorative elements -->
  <circle cx="80" cy="60" r="2" fill="#f85149" opacity="0.4"/><circle cx="95" cy="45" r="1.5" fill="#f85149" opacity="0.35"/><circle cx="70" cy="100" r="1" fill="#f85149" opacity="0.35"/>
  <circle cx="560" cy="60" r="2" fill="#f85149" opacity="0.4"/><circle cx="545" cy="100" r="1.5" fill="#f85149" opacity="0.35"/><circle cx="570" cy="45" r="1" fill="#f85149" opacity="0.35"/>
  <!-- Icon -->
  
  <!-- Gear icon -->
  <circle cx="320" cy="70" r="20" fill="none" stroke="#f85149" stroke-width="2" opacity="0.8"/>
  <circle cx="320" cy="70" r="10" fill="#161b22" stroke="#f85149" stroke-width="1.5"/>
  <!-- Gear teeth -->
  <rect x="316" y="46" width="8" height="8" rx="1" fill="#f85149" opacity="0.7"/>
  <rect x="316" y="86" width="8" height="8" rx="1" fill="#f85149" opacity="0.7"/>
  <rect x="296" y="66" width="8" height="8" rx="1" fill="#f85149" opacity="0.7"/>
  <rect x="336" y="66" width="8" height="8" rx="1" fill="#f85149" opacity="0.7"/>
  <!-- Numbers -->
  <text x="290" y="120" font-family="monospace" font-size="16" fill="#3fb950" opacity="0.6">7</text>
  <text x="315" y="120" font-family="monospace" font-size="16" fill="#58a6ff" opacity="0.6">5</text>
  <text x="340" y="120" font-family="monospace" font-size="16" fill="#f0883e" opacity="0.6">4</text>
  <!-- Accent bar -->
  <rect x="180" y="152" width="280" height="4" fill="#f85149" opacity="0.8" rx="1.5"/>
</svg>
