<svg xmlns="http://www.w3.org/2000/svg" viewBox="0 0 640 160" width="640" height="160">
  <defs>
    <linearGradient id="bg" x1="0" y1="0" x2="1" y2="1">
      <stop offset="0%" stop-color="#0d1117"/>
      <stop offset="100%" stop-color="#161b22"/>
    </linearGradient>
  </defs>
  <rect width="640" height="160" fill="url(#bg)" rx="8"/>
  <!-- Decorative elements -->
  <circle cx="80" cy="60" r="2" fill="#58a6ff" opacity="0.4"/><circle cx="95" cy="45" r="1.5" fill="#58a6ff" opacity="0.35"/><circle cx="70" cy="100" r="1" fill="#58a6ff" opacity="0.35"/>
  <circle cx="560" cy="60" r="2" fill="#58a6ff" opacity="0.4"/><circle cx="545" cy="100" r="1.5" fill="#58a6ff" opacity="0.35"/><circle cx="570" cy="45" r="1" fill="#58a6ff" opacity="0.35"/>
  <!-- Icon -->
  
  <!-- .bashrc file -->
  <rect x="285" y="30" width="70" height="75" rx="4" fill="#161b22" stroke="#30363d" stroke-width="1.5"/>
  <text x="298" y="46" font-family="monospace" font-size="8" fill="#8b949e"># .bashrc</text>
  <text x="293" y="60" font-family="monospace" font-size="7" fill="#bc8cff">alias</text>
  <text x="318" y="60" font-family="monospace" font-size="7" fill="#e6edf3">ll=</text>
  <text x="330" y="60" font-family="monospace" font-size="7" fill="#3fb950">"ls -la"</text>
  <text x="293" y="74" font-family="monospace" font-size="7" fill="#bc8cff">alias</text>
  <text x="318" y="74" font-family="monospace" font-size="7" fill="#e6edf3">gs=</text>
  <text x="330" y="74" font-family="monospace" font-size="7" fill="#3fb950">"git s"</text>
  <text x="293" y="88" font-family="monospace" font-size="7" fill="#bc8cff">export</text>
  <text x="324" y="88" font-family="monospace" font-size="7" fill="#f0883e">PATH</text>
  <!-- Gear icon -->
  <circle cx="320" cy="125" r="10" fill="none" stroke="#58a6ff" stroke-width="1.5" opacity="0.6"/>
  <circle cx="320" cy="125" r="4" fill="#58a6ff" opacity="0.45"/>
  <!-- Accent bar -->
  <rect x="180" y="152" width="280" height="4" fill="#58a6ff" opacity="0.8" rx="1.5"/>
</svg>
