<svg xmlns="http://www.w3.org/2000/svg" viewBox="0 0 640 230">
<style>
.f{font-family:sans-serif}
.ti{animation:tia 11s infinite}@keyframes tia{0%,3%{opacity:0}7%,87%{opacity:1}92%,100%{opacity:0}}
.c1{animation:c1a 11s infinite}@keyframes c1a{0%,12%{opacity:0}18%,87%{opacity:1}92%,100%{opacity:0}}
.c2{animation:c2a 11s infinite}@keyframes c2a{0%,30%{opacity:0}36%,87%{opacity:1}92%,100%{opacity:0}}
.c3{animation:c3a 11s infinite}@keyframes c3a{0%,48%{opacity:0}54%,87%{opacity:1}92%,100%{opacity:0}}
.c4{animation:c4a 11s infinite}@keyframes c4a{0%,65%{opacity:0}71%,87%{opacity:1}92%,100%{opacity:0}}
.ft{animation:fta 11s infinite}@keyframes fta{0%,78%{opacity:0}82%,87%{opacity:1}92%,100%{opacity:0}}
</style>
<rect width="640" height="230" rx="12" fill="#0d1117"/>
<rect width="640" height="46" rx="12" fill="#161b22"/>
<rect y="34" width="640" height="12" fill="#161b22"/>
<text class="f ti" x="320" y="28" text-anchor="middle" font-size="14" font-weight="bold" fill="#e6edf3">ماذا تعلمت؟ — الدرس ٦</text>
<g class="c1">
<rect x="16" y="56" width="142" height="118" rx="8" fill="#0d1520"/>
<rect x="16" y="56" width="142" height="4" rx="2" fill="#58a6ff"/>
<text class="f" x="87" y="82" text-anchor="middle" font-size="22">📋</text>
<text class="f" x="87" y="104" text-anchor="middle" font-size="14" font-weight="bold" fill="#58a6ff">ps aux</text>
<text class="f" x="87" y="122" text-anchor="middle" font-size="11" fill="#8b949e">العمليات</text>
<text class="f" x="87" y="138" text-anchor="middle" font-size="11" fill="#8b949e">الجارية</text>
</g>
<g class="c2">
<rect x="168" y="56" width="142" height="118" rx="8" fill="#0a1a0d"/>
<rect x="168" y="56" width="142" height="4" rx="2" fill="#3fb950"/>
<text class="f" x="239" y="82" text-anchor="middle" font-size="22">📊</text>
<text class="f" x="239" y="104" text-anchor="middle" font-size="18" font-weight="bold" fill="#3fb950">top</text>
<text class="f" x="239" y="122" text-anchor="middle" font-size="11" fill="#8b949e">المراقب</text>
<text class="f" x="239" y="138" text-anchor="middle" font-size="11" fill="#8b949e">المباشر</text>
</g>
<g class="c3">
<rect x="320" y="56" width="142" height="118" rx="8" fill="#180a0a"/>
<rect x="320" y="56" width="142" height="4" rx="2" fill="#f85149"/>
<text class="f" x="391" y="82" text-anchor="middle" font-size="22">❌</text>
<text class="f" x="391" y="104" text-anchor="middle" font-size="18" font-weight="bold" fill="#f85149">kill</text>
<text class="f" x="391" y="122" text-anchor="middle" font-size="11" fill="#8b949e">إيقاف</text>
<text class="f" x="391" y="138" text-anchor="middle" font-size="11" fill="#8b949e">البرامج</text>
</g>
<g class="c4">
<rect x="472" y="56" width="152" height="118" rx="8" fill="#1a0f08"/>
<rect x="472" y="56" width="152" height="4" rx="2" fill="#f0883e"/>
<text class="f" x="548" y="82" text-anchor="middle" font-size="22">🔄</text>
<text class="f" x="548" y="104" text-anchor="middle" font-size="18" font-weight="bold" fill="#f0883e">&amp;</text>
<text class="f" x="548" y="122" text-anchor="middle" font-size="11" fill="#8b949e">المهام</text>
<text class="f" x="548" y="138" text-anchor="middle" font-size="11" fill="#8b949e">الخلفية</text>
</g>
<g class="ft">
<rect x="16" y="186" width="608" height="28" rx="6" fill="#161b22"/>
<text class="f" x="320" y="205" text-anchor="middle" font-size="11" fill="#8b949e">ps · top · kill · &amp; — أدوات مراقبة النظام الأساسية</text>
</g>
</svg>
