<svg xmlns="http://www.w3.org/2000/svg" viewBox="0 0 640 160" width="640" height="160">
  <defs>
    <linearGradient id="bg" x1="0" y1="0" x2="1" y2="1">
      <stop offset="0%" stop-color="#0d1117"/>
      <stop offset="100%" stop-color="#161b22"/>
    </linearGradient>
  </defs>
  <rect width="640" height="160" fill="url(#bg)" rx="8"/>
  <!-- Decorative elements -->
  <circle cx="80" cy="60" r="2" fill="#58a6ff" opacity="0.4"/><circle cx="95" cy="45" r="1.5" fill="#58a6ff" opacity="0.35"/><circle cx="70" cy="100" r="1" fill="#58a6ff" opacity="0.35"/>
  <circle cx="560" cy="60" r="2" fill="#58a6ff" opacity="0.4"/><circle cx="545" cy="100" r="1.5" fill="#58a6ff" opacity="0.35"/><circle cx="570" cy="45" r="1" fill="#58a6ff" opacity="0.35"/>
  <!-- Icon -->
  
  <!-- Root node -->
  <text x="313" y="40" font-family="monospace" font-size="14" fill="#58a6ff">/</text>
  <!-- Branches -->
  <line x1="320" y1="45" x2="280" y2="70" stroke="#30363d" stroke-width="1.5"/>
  <line x1="320" y1="45" x2="320" y2="70" stroke="#30363d" stroke-width="1.5"/>
  <line x1="320" y1="45" x2="360" y2="70" stroke="#30363d" stroke-width="1.5"/>
  <!-- Folders -->
  <rect x="264" y="70" width="32" height="18" rx="3" fill="#21262d" stroke="#58a6ff" stroke-width="1.5" opacity="0.95"/>
  <text x="270" y="83" font-family="monospace" font-size="8" fill="#58a6ff">etc</text>
  <rect x="304" y="70" width="32" height="18" rx="3" fill="#21262d" stroke="#3fb950" stroke-width="1.5" opacity="0.95"/>
  <text x="308" y="83" font-family="monospace" font-size="8" fill="#3fb950">home</text>
  <rect x="344" y="70" width="32" height="18" rx="3" fill="#21262d" stroke="#f0883e" stroke-width="1.5" opacity="0.95"/>
  <text x="352" y="83" font-family="monospace" font-size="8" fill="#f0883e">var</text>
  <!-- Sub-branches from home -->
  <line x1="320" y1="88" x2="305" y2="108" stroke="#30363d" stroke-width="1.5"/>
  <line x1="320" y1="88" x2="335" y2="108" stroke="#30363d" stroke-width="1.5"/>
  <rect x="290" y="108" width="30" height="14" rx="2" fill="#161b22" stroke="#3fb950" stroke-width="0.5" opacity="0.8"/>
  <rect x="323" y="108" width="24" height="14" rx="2" fill="#161b22" stroke="#3fb950" stroke-width="0.5" opacity="0.8"/>
  <!-- Accent bar -->
  <rect x="180" y="152" width="280" height="4" fill="#58a6ff" opacity="0.8" rx="1.5"/>
</svg>
