<svg xmlns="http://www.w3.org/2000/svg" viewBox="0 0 640 210">
<style>
.f{font-family:sans-serif}
.ti{animation:tia 11s infinite}@keyframes tia{0%,3%{opacity:0}7%,87%{opacity:1}92%,100%{opacity:0}}
.c1{animation:c1a 11s infinite}@keyframes c1a{0%,12%{opacity:0}18%,87%{opacity:1}92%,100%{opacity:0}}
.c2{animation:c2a 11s infinite}@keyframes c2a{0%,30%{opacity:0}36%,87%{opacity:1}92%,100%{opacity:0}}
.c3{animation:c3a 11s infinite}@keyframes c3a{0%,48%{opacity:0}54%,87%{opacity:1}92%,100%{opacity:0}}
.ft{animation:fta 11s infinite}@keyframes fta{0%,78%{opacity:0}82%,87%{opacity:1}92%,100%{opacity:0}}
</style>
<rect width="640" height="210" rx="12" fill="#0d1117"/>
<rect width="640" height="46" rx="12" fill="#161b22"/>
<rect y="34" width="640" height="12" fill="#161b22"/>
<text class="f ti" x="320" y="30" text-anchor="middle" font-size="14" font-weight="bold" fill="#e6edf3">٣ طرق لتجربة لينوكس</text>
<g class="c1">
<rect x="24" y="56" width="184" height="110" rx="8" fill="#0a1a0d"/>
<rect x="24" y="56" width="184" height="4" rx="2" fill="#3fb950"/>
<text class="f" x="116" y="80" text-anchor="middle" font-size="22">🌐</text>
<text class="f" x="116" y="100" text-anchor="middle" font-size="13" font-weight="bold" fill="#3fb950">في المتصفح</text>
<text class="f" x="116" y="118" text-anchor="middle" font-size="11" fill="#8b949e">webminal.org</text>
<text class="f" x="116" y="134" text-anchor="middle" font-size="11" fill="#3fb950">بدون تنزيل! ✓</text>
<rect x="44" y="144" width="144" height="16" rx="4" fill="#1a3a1a"/>
<text class="f" x="116" y="156" text-anchor="middle" font-size="10" fill="#3fb950">★ موصى به</text>
</g>
<g class="c2">
<rect x="228" y="56" width="184" height="110" rx="8" fill="#0d1520"/>
<rect x="228" y="56" width="184" height="4" rx="2" fill="#58a6ff"/>
<text class="f" x="320" y="80" text-anchor="middle" font-size="22">🪟</text>
<text class="f" x="320" y="100" text-anchor="middle" font-size="13" font-weight="bold" fill="#58a6ff">ويندوز ← WSL</text>
<text class="f" x="320" y="118" text-anchor="middle" font-size="11" fill="#8b949e">افتح PowerShell</text>
<text class="f" x="320" y="134" text-anchor="middle" font-size="11" fill="#8b949e">wsl --install</text>
</g>
<g class="c3">
<rect x="432" y="56" width="184" height="110" rx="8" fill="#1a0f08"/>
<rect x="432" y="56" width="184" height="4" rx="2" fill="#f0883e"/>
<text class="f" x="524" y="80" text-anchor="middle" font-size="22">🍎</text>
<text class="f" x="524" y="100" text-anchor="middle" font-size="13" font-weight="bold" fill="#f0883e">ماك ← الطرفية</text>
<text class="f" x="524" y="118" text-anchor="middle" font-size="11" fill="#8b949e">Finder ← التطبيقات</text>
<text class="f" x="524" y="134" text-anchor="middle" font-size="11" fill="#8b949e">← الطرفية</text>
</g>
<g class="ft">
<rect x="24" y="178" width="592" height="24" rx="6" fill="#161b22"/>
<text class="f" x="320" y="195" text-anchor="middle" font-size="11" fill="#8b949e">الطرق الثلاث مجانية — لا خطر، لا شيء يمكن كسره!</text>
</g>
</svg>
