<svg xmlns="http://www.w3.org/2000/svg" viewBox="0 0 640 160" width="640" height="160">
  <defs>
    <linearGradient id="bg" x1="0" y1="0" x2="1" y2="1">
      <stop offset="0%" stop-color="#0d1117"/>
      <stop offset="100%" stop-color="#161b22"/>
    </linearGradient>
  </defs>
  <rect width="640" height="160" fill="url(#bg)" rx="8"/>
  <!-- Decorative elements -->
  <circle cx="80" cy="60" r="2" fill="#58a6ff" opacity="0.4"/><circle cx="95" cy="45" r="1.5" fill="#58a6ff" opacity="0.35"/><circle cx="70" cy="100" r="1" fill="#58a6ff" opacity="0.35"/>
  <circle cx="560" cy="60" r="2" fill="#58a6ff" opacity="0.4"/><circle cx="545" cy="100" r="1.5" fill="#58a6ff" opacity="0.35"/><circle cx="570" cy="45" r="1" fill="#58a6ff" opacity="0.35"/>
  <!-- Icon -->
  
  <!-- Network nodes -->
  <circle cx="280" cy="65" r="14" fill="#21262d" stroke="#58a6ff" stroke-width="1.5"/>
  <circle cx="320" cy="45" r="14" fill="#21262d" stroke="#3fb950" stroke-width="1.5"/>
  <circle cx="360" cy="65" r="14" fill="#21262d" stroke="#58a6ff" stroke-width="1.5"/>
  <circle cx="320" cy="90" r="14" fill="#21262d" stroke="#f0883e" stroke-width="1.5"/>
  <!-- Connections -->
  <line x1="292" y1="57" x2="308" y2="49" stroke="#30363d" stroke-width="1.5"/>
  <line x1="332" y1="49" x2="348" y2="57" stroke="#30363d" stroke-width="1.5"/>
  <line x1="280" y1="79" x2="308" y2="88" stroke="#30363d" stroke-width="1.5"/>
  <line x1="332" y1="88" x2="360" y2="79" stroke="#30363d" stroke-width="1.5"/>
  <line x1="320" y1="59" x2="320" y2="76" stroke="#30363d" stroke-width="1.5"/>
  <!-- Pulse ring -->
  <circle cx="320" cy="45" r="20" fill="none" stroke="#3fb950" stroke-width="1.5" opacity="0.45"/>
  <!-- Label -->
  <text x="296" y="126" font-family="monospace" font-size="9" fill="#58a6ff" opacity="0.5">ping · ip · ss</text>
  <!-- Accent bar -->
  <rect x="180" y="152" width="280" height="4" fill="#58a6ff" opacity="0.8" rx="1.5"/>
</svg>
