<svg xmlns="http://www.w3.org/2000/svg" viewBox="0 0 640 160" width="640" height="160">
  <defs>
    <linearGradient id="bg" x1="0" y1="0" x2="1" y2="1">
      <stop offset="0%" stop-color="#0d1117"/>
      <stop offset="100%" stop-color="#161b22"/>
    </linearGradient>
  </defs>
  <rect width="640" height="160" fill="url(#bg)" rx="8"/>
  <!-- Decorative elements -->
  <circle cx="80" cy="60" r="2" fill="#58a6ff" opacity="0.15"/><circle cx="95" cy="45" r="1.5" fill="#58a6ff" opacity="0.1"/><circle cx="70" cy="100" r="1" fill="#58a6ff" opacity="0.12"/>
  <circle cx="560" cy="60" r="2" fill="#58a6ff" opacity="0.15"/><circle cx="545" cy="100" r="1.5" fill="#58a6ff" opacity="0.1"/><circle cx="570" cy="45" r="1" fill="#58a6ff" opacity="0.12"/>
  <!-- Icon -->
  
  <!-- Globe -->
  <circle cx="300" cy="65" r="24" fill="none" stroke="#58a6ff" stroke-width="1.5" opacity="0.5"/>
  <ellipse cx="300" cy="65" rx="12" ry="24" fill="none" stroke="#58a6ff" stroke-width="1" opacity="0.3"/>
  <line x1="276" y1="65" x2="324" y2="65" stroke="#58a6ff" stroke-width="1" opacity="0.3"/>
  <!-- Download arrow from globe -->
  <line x1="330" y1="55" x2="360" y2="55" stroke="#3fb950" stroke-width="1.5" opacity="0.5"/>
  <line x1="360" y1="55" x2="360" y2="80" stroke="#3fb950" stroke-width="1.5" opacity="0.5"/>
  <polyline points="354,74 360,82 366,74" fill="none" stroke="#3fb950" stroke-width="1.5" opacity="0.5"/>
  <!-- File at bottom -->
  <rect x="350" y="85" width="20" height="16" rx="2" fill="#21262d" stroke="#3fb950" stroke-width="1"/>
  <!-- Accent bar -->
  <rect x="220" y="152" width="200" height="3" fill="#58a6ff" opacity="0.5" rx="1.5"/>
</svg>
