<svg xmlns="http://www.w3.org/2000/svg" viewBox="0 0 640 160" width="640" height="160">
  <defs>
    <linearGradient id="bg" x1="0" y1="0" x2="1" y2="1">
      <stop offset="0%" stop-color="#0d1117"/>
      <stop offset="100%" stop-color="#161b22"/>
    </linearGradient>
  </defs>
  <rect width="640" height="160" fill="url(#bg)" rx="8"/>
  <!-- Decorative elements -->
  <circle cx="80" cy="60" r="2" fill="#bc8cff" opacity="0.4"/><circle cx="95" cy="45" r="1.5" fill="#bc8cff" opacity="0.35"/><circle cx="70" cy="100" r="1" fill="#bc8cff" opacity="0.35"/>
  <circle cx="560" cy="60" r="2" fill="#bc8cff" opacity="0.4"/><circle cx="545" cy="100" r="1.5" fill="#bc8cff" opacity="0.35"/><circle cx="570" cy="45" r="1" fill="#bc8cff" opacity="0.35"/>
  <!-- Icon -->
  
  <!-- Clock circle -->
  <circle cx="320" cy="65" r="26" fill="none" stroke="#bc8cff" stroke-width="2" opacity="0.8"/>
  <!-- Clock hands -->
  <line x1="320" y1="65" x2="320" y2="47" stroke="#bc8cff" stroke-width="2" opacity="0.95"/>
  <line x1="320" y1="65" x2="336" y2="72" stroke="#bc8cff" stroke-width="1.5" opacity="0.8"/>
  <circle cx="320" cy="65" r="3" fill="#bc8cff" opacity="0.9"/>
  <!-- Rewind arrow -->
  <path d="M296 48 A28 28 0 0 0 294 65" fill="none" stroke="#f0883e" stroke-width="1.5" opacity="0.7"/>
  <polyline points="290,46 296,48 298,42" fill="none" stroke="#f0883e" stroke-width="1.5" opacity="0.7"/>
  <!-- History lines -->
  <text x="283" y="112" font-family="monospace" font-size="8" fill="#8b949e" opacity="0.6">  1  ls -la</text>
  <text x="283" y="122" font-family="monospace" font-size="8" fill="#8b949e" opacity="0.45">  2  cd ..</text>
  <!-- Accent bar -->
  <rect x="180" y="152" width="280" height="4" fill="#bc8cff" opacity="0.8" rx="1.5"/>
</svg>
