<svg xmlns="http://www.w3.org/2000/svg" viewBox="0 0 640 160" width="640" height="160">
  <defs>
    <linearGradient id="bg" x1="0" y1="0" x2="1" y2="1">
      <stop offset="0%" stop-color="#0d1117"/>
      <stop offset="100%" stop-color="#161b22"/>
    </linearGradient>
  </defs>
  <rect width="640" height="160" fill="url(#bg)" rx="8"/>
  <!-- Decorative elements -->
  <circle cx="80" cy="60" r="2" fill="#58a6ff" opacity="0.4"/><circle cx="95" cy="45" r="1.5" fill="#58a6ff" opacity="0.35"/><circle cx="70" cy="100" r="1" fill="#58a6ff" opacity="0.35"/>
  <circle cx="560" cy="60" r="2" fill="#58a6ff" opacity="0.4"/><circle cx="545" cy="100" r="1.5" fill="#58a6ff" opacity="0.35"/><circle cx="570" cy="45" r="1" fill="#58a6ff" opacity="0.35"/>
  <!-- Icon -->
  
  <!-- Local machine -->
  <rect x="250" y="55" width="50" height="34" rx="4" fill="#21262d" stroke="#e6edf3" stroke-width="1.5" opacity="0.9"/>
  <text x="262" y="76" font-family="monospace" font-size="8" fill="#8b949e">local</text>
  <!-- Encrypted tunnel -->
  <line x1="305" y1="72" x2="340" y2="72" stroke="#3fb950" stroke-width="2" stroke-dasharray="5,3" opacity="0.8"/>
  <!-- Lock on tunnel -->
  <rect x="315" y="64" width="12" height="10" rx="2" fill="#21262d" stroke="#3fb950" stroke-width="1.5"/>
  <path d="M318 64 L318 60 Q318 55 321 55 Q324 55 324 60 L324 64" fill="none" stroke="#3fb950" stroke-width="1.5"/>
  <!-- Remote server -->
  <rect x="345" y="55" width="50" height="34" rx="4" fill="#21262d" stroke="#58a6ff" stroke-width="1.5"/>
  <text x="351" y="76" font-family="monospace" font-size="8" fill="#58a6ff">server</text>
  <!-- Accent bar -->
  <rect x="180" y="152" width="280" height="4" fill="#58a6ff" opacity="0.8" rx="1.5"/>
</svg>
