<svg xmlns="http://www.w3.org/2000/svg" viewBox="0 0 640 160" width="640" height="160">
  <defs>
    <linearGradient id="bg" x1="0" y1="0" x2="1" y2="1">
      <stop offset="0%" stop-color="#0d1117"/>
      <stop offset="100%" stop-color="#161b22"/>
    </linearGradient>
  </defs>
  <rect width="640" height="160" fill="url(#bg)" rx="8"/>
  <!-- Decorative elements -->
  <circle cx="80" cy="60" r="2" fill="#58a6ff" opacity="0.4"/><circle cx="95" cy="45" r="1.5" fill="#58a6ff" opacity="0.35"/><circle cx="70" cy="100" r="1" fill="#58a6ff" opacity="0.35"/>
  <circle cx="560" cy="60" r="2" fill="#58a6ff" opacity="0.4"/><circle cx="545" cy="100" r="1.5" fill="#58a6ff" opacity="0.35"/><circle cx="570" cy="45" r="1" fill="#58a6ff" opacity="0.35"/>
  <!-- Icon -->
  
  <!-- Document -->
  <rect x="298" y="30" width="44" height="80" rx="3" fill="#161b22" stroke="#30363d" stroke-width="1.5"/>
  <!-- Head highlight (top lines) -->
  <line x1="306" y1="42" x2="334" y2="42" stroke="#3fb950" stroke-width="2" opacity="0.95"/>
  <line x1="306" y1="50" x2="330" y2="50" stroke="#3fb950" stroke-width="2" opacity="0.95"/>
  <line x1="306" y1="58" x2="326" y2="58" stroke="#3fb950" stroke-width="1.5" opacity="0.8"/>
  <!-- Middle (faded) -->
  <line x1="306" y1="66" x2="332" y2="66" stroke="#8b949e" stroke-width="1.5" opacity="0.4"/>
  <line x1="306" y1="74" x2="328" y2="74" stroke="#8b949e" stroke-width="1.5" opacity="0.4"/>
  <!-- Tail highlight (bottom lines) -->
  <line x1="306" y1="82" x2="330" y2="82" stroke="#f0883e" stroke-width="1.5" opacity="0.8"/>
  <line x1="306" y1="90" x2="334" y2="90" stroke="#f0883e" stroke-width="2" opacity="0.95"/>
  <line x1="306" y1="98" x2="326" y2="98" stroke="#f0883e" stroke-width="2" opacity="0.95"/>
  <!-- Arrow up (head) -->
  <polyline points="264,50 270,38 276,50" fill="none" stroke="#3fb950" stroke-width="1.5" opacity="0.9"/>
  <text x="258" y="64" font-family="monospace" font-size="8" fill="#3fb950" opacity="0.7">head</text>
  <!-- Arrow down (tail) -->
  <polyline points="364,84 370,96 376,84" fill="none" stroke="#f0883e" stroke-width="1.5" opacity="0.9"/>
  <text x="360" y="78" font-family="monospace" font-size="8" fill="#f0883e" opacity="0.7">tail</text>
  <!-- Accent bar -->
  <rect x="180" y="152" width="280" height="4" fill="#58a6ff" opacity="0.8" rx="1.5"/>
</svg>
