<svg xmlns="http://www.w3.org/2000/svg" viewBox="0 0 640 160" width="640" height="160">
  <defs>
    <linearGradient id="bg" x1="0" y1="0" x2="1" y2="1">
      <stop offset="0%" stop-color="#0d1117"/>
      <stop offset="100%" stop-color="#161b22"/>
    </linearGradient>
  </defs>
  <rect width="640" height="160" fill="url(#bg)" rx="8"/>
  <!-- Decorative elements -->
  <circle cx="80" cy="60" r="2" fill="#58a6ff" opacity="0.15"/><circle cx="95" cy="45" r="1.5" fill="#58a6ff" opacity="0.1"/><circle cx="70" cy="100" r="1" fill="#58a6ff" opacity="0.12"/>
  <circle cx="560" cy="60" r="2" fill="#58a6ff" opacity="0.15"/><circle cx="545" cy="100" r="1.5" fill="#58a6ff" opacity="0.1"/><circle cx="570" cy="45" r="1" fill="#58a6ff" opacity="0.12"/>
  <!-- Icon -->
  
  <!-- Document with text lines -->
  <rect x="290" y="30" width="60" height="75" rx="4" fill="#161b22" stroke="#30363d" stroke-width="1.5"/>
  <line x1="300" y1="48" x2="340" y2="48" stroke="#58a6ff" stroke-width="2" opacity="0.6"/>
  <line x1="300" y1="58" x2="332" y2="58" stroke="#8b949e" stroke-width="1.5" opacity="0.4"/>
  <line x1="300" y1="68" x2="338" y2="68" stroke="#8b949e" stroke-width="1.5" opacity="0.4"/>
  <line x1="300" y1="78" x2="325" y2="78" stroke="#8b949e" stroke-width="1.5" opacity="0.4"/>
  <line x1="300" y1="88" x2="336" y2="88" stroke="#8b949e" stroke-width="1.5" opacity="0.4"/>
  <!-- Eye icon (reading) -->
  <ellipse cx="320" cy="122" rx="16" ry="10" fill="none" stroke="#58a6ff" stroke-width="1.5" opacity="0.5"/>
  <circle cx="320" cy="122" r="5" fill="#58a6ff" opacity="0.3"/>
  <!-- Accent bar -->
  <rect x="220" y="152" width="200" height="3" fill="#58a6ff" opacity="0.5" rx="1.5"/>
</svg>
