<svg xmlns="http://www.w3.org/2000/svg" viewBox="0 0 640 360">
  <defs>
    <linearGradient id="bg" x1="0" y1="0" x2="0" y2="1">
      <stop offset="0%" stop-color="#0d1117"/>
      <stop offset="100%" stop-color="#1a2540"/>
    </linearGradient>
  </defs>
  <rect width="640" height="360" fill="url(#bg)"/>

  <!-- Tux penguin body -->
  <ellipse cx="320" cy="200" rx="55" ry="70" fill="#2d333b"/>
  <!-- Tux belly -->
  <ellipse cx="320" cy="215" rx="38" ry="50" fill="#e6edf3"/>
  <!-- Tux head -->
  <ellipse cx="320" cy="135" rx="40" ry="38" fill="#2d333b"/>
  <!-- Eyes -->
  <ellipse cx="307" cy="128" rx="10" ry="12" fill="#e6edf3"/>
  <ellipse cx="333" cy="128" rx="10" ry="12" fill="#e6edf3"/>
  <circle cx="309" cy="126" r="5" fill="#0d1117"/>
  <circle cx="335" cy="126" r="5" fill="#0d1117"/>
  <!-- Beak -->
  <ellipse cx="320" cy="143" rx="12" ry="7" fill="#f0883e"/>
  <!-- Feet -->
  <ellipse cx="300" cy="272" rx="18" ry="6" fill="#f0883e"/>
  <ellipse cx="340" cy="272" rx="18" ry="6" fill="#f0883e"/>

  <!-- Server rack left -->
  <rect x="80" y="120" width="70" height="160" rx="4" fill="#21262d" stroke="#30363d" stroke-width="2"/>
  <rect x="88" y="130" width="54" height="14" rx="2" fill="#161b22"/>
  <circle cx="134" cy="137" r="3" fill="#3fb950"/>
  <rect x="88" y="150" width="54" height="14" rx="2" fill="#161b22"/>
  <circle cx="134" cy="157" r="3" fill="#3fb950"/>
  <rect x="88" y="170" width="54" height="14" rx="2" fill="#161b22"/>
  <circle cx="134" cy="177" r="3" fill="#58a6ff"/>
  <rect x="88" y="190" width="54" height="14" rx="2" fill="#161b22"/>
  <circle cx="134" cy="197" r="3" fill="#3fb950"/>
  <rect x="88" y="210" width="54" height="14" rx="2" fill="#161b22"/>
  <circle cx="134" cy="217" r="3" fill="#f0883e"/>
  <rect x="88" y="230" width="54" height="14" rx="2" fill="#161b22"/>
  <circle cx="134" cy="237" r="3" fill="#3fb950"/>
  <rect x="88" y="250" width="54" height="14" rx="2" fill="#161b22"/>
  <circle cx="134" cy="257" r="3" fill="#3fb950"/>

  <!-- Server rack right -->
  <rect x="490" y="120" width="70" height="160" rx="4" fill="#21262d" stroke="#30363d" stroke-width="2"/>
  <rect x="498" y="130" width="54" height="14" rx="2" fill="#161b22"/>
  <circle cx="544" cy="137" r="3" fill="#3fb950"/>
  <rect x="498" y="150" width="54" height="14" rx="2" fill="#161b22"/>
  <circle cx="544" cy="157" r="3" fill="#58a6ff"/>
  <rect x="498" y="170" width="54" height="14" rx="2" fill="#161b22"/>
  <circle cx="544" cy="177" r="3" fill="#3fb950"/>
  <rect x="498" y="190" width="54" height="14" rx="2" fill="#161b22"/>
  <circle cx="544" cy="197" r="3" fill="#3fb950"/>
  <rect x="498" y="210" width="54" height="14" rx="2" fill="#161b22"/>
  <circle cx="544" cy="217" r="3" fill="#3fb950"/>
  <rect x="498" y="230" width="54" height="14" rx="2" fill="#161b22"/>
  <circle cx="544" cy="237" r="3" fill="#f0883e"/>
  <rect x="498" y="250" width="54" height="14" rx="2" fill="#161b22"/>
  <circle cx="544" cy="257" r="3" fill="#3fb950"/>

  <!-- Decorative dots -->
  <circle cx="220" cy="310" r="3" fill="#58a6ff" opacity="0.4"/>
  <circle cx="420" cy="310" r="3" fill="#58a6ff" opacity="0.4"/>
  <circle cx="180" cy="100" r="2" fill="#3fb950" opacity="0.3"/>
  <circle cx="460" cy="100" r="2" fill="#3fb950" opacity="0.3"/>
  <circle cx="550" cy="320" r="2" fill="#f0883e" opacity="0.3"/>
  <circle cx="90" cy="320" r="2" fill="#f0883e" opacity="0.3"/>
</svg>