<svg xmlns="http://www.w3.org/2000/svg" viewBox="0 0 640 160" width="640" height="160">
  <defs>
    <linearGradient id="bg" x1="0" y1="0" x2="1" y2="1">
      <stop offset="0%" stop-color="#0d1117"/>
      <stop offset="100%" stop-color="#161b22"/>
    </linearGradient>
  </defs>
  <rect width="640" height="160" fill="url(#bg)" rx="8"/>
  <!-- Decorative elements -->
  <circle cx="80" cy="60" r="2" fill="#3fb950" opacity="0.15"/><circle cx="95" cy="45" r="1.5" fill="#3fb950" opacity="0.1"/><circle cx="70" cy="100" r="1" fill="#3fb950" opacity="0.12"/>
  <circle cx="560" cy="60" r="2" fill="#3fb950" opacity="0.15"/><circle cx="545" cy="100" r="1.5" fill="#3fb950" opacity="0.1"/><circle cx="570" cy="45" r="1" fill="#3fb950" opacity="0.12"/>
  <!-- Icon -->
  
  <!-- Search magnifying glass -->
  <circle cx="295" cy="60" r="14" fill="none" stroke="#58a6ff" stroke-width="1.5" opacity="0.5"/>
  <line x1="305" y1="70" x2="315" y2="80" stroke="#58a6ff" stroke-width="2" opacity="0.5" stroke-linecap="round"/>
  <!-- Package results -->
  <rect x="330" y="45" width="50" height="12" rx="2" fill="#21262d" stroke="#3fb950" stroke-width="0.5" opacity="0.6"/>
  <rect x="330" y="62" width="50" height="12" rx="2" fill="#21262d" stroke="#3fb950" stroke-width="0.5" opacity="0.4"/>
  <rect x="330" y="79" width="50" height="12" rx="2" fill="#21262d" stroke="#f85149" stroke-width="0.5" opacity="0.4"/>
  <!-- X on last one (remove) -->
  <line x1="372" y1="82" x2="378" y2="88" stroke="#f85149" stroke-width="1" opacity="0.6"/>
  <line x1="378" y1="82" x2="372" y2="88" stroke="#f85149" stroke-width="1" opacity="0.6"/>
  <!-- Accent bar -->
  <rect x="220" y="152" width="200" height="3" fill="#3fb950" opacity="0.5" rx="1.5"/>
</svg>
