<svg xmlns="http://www.w3.org/2000/svg" viewBox="0 0 640 160" width="640" height="160">
  <defs>
    <linearGradient id="bg" x1="0" y1="0" x2="1" y2="1">
      <stop offset="0%" stop-color="#0d1117"/>
      <stop offset="100%" stop-color="#161b22"/>
    </linearGradient>
  </defs>
  <rect width="640" height="160" fill="url(#bg)" rx="8"/>
  <!-- Decorative elements -->
  <circle cx="80" cy="60" r="2" fill="#f0883e" opacity="0.4"/><circle cx="95" cy="45" r="1.5" fill="#f0883e" opacity="0.35"/><circle cx="70" cy="100" r="1" fill="#f0883e" opacity="0.35"/>
  <circle cx="560" cy="60" r="2" fill="#f0883e" opacity="0.4"/><circle cx="545" cy="100" r="1.5" fill="#f0883e" opacity="0.35"/><circle cx="570" cy="45" r="1" fill="#f0883e" opacity="0.35"/>
  <!-- Icon -->
  
  <!-- File icon -->
  <rect x="280" y="40" width="30" height="38" rx="2" fill="#21262d" stroke="#e6edf3" stroke-width="1.5" opacity="0.95"/>
  <path d="M298 40 L310 52 L310 40 Z" fill="#161b22" stroke="#e6edf3" stroke-width="0.5" opacity="0.8"/>
  <!-- Plus badge -->
  <circle cx="298" cy="68" r="8" fill="#3fb950" opacity="0.95"/>
  <line x1="294" y1="68" x2="302" y2="68" stroke="#fff" stroke-width="1.5"/>
  <line x1="298" y1="64" x2="298" y2="72" stroke="#fff" stroke-width="1.5"/>
  <!-- Folder icon -->
  <rect x="330" y="45" width="36" height="28" rx="3" fill="#21262d" stroke="#f0883e" stroke-width="1.5"/>
  <rect x="330" y="40" width="18" height="8" rx="2" fill="#21262d" stroke="#f0883e" stroke-width="1.5"/>
  <!-- Plus badge -->
  <circle cx="354" cy="68" r="8" fill="#3fb950" opacity="0.95"/>
  <line x1="350" y1="68" x2="358" y2="68" stroke="#fff" stroke-width="1.5"/>
  <line x1="354" y1="64" x2="354" y2="72" stroke="#fff" stroke-width="1.5"/>
  <!-- Commands -->
  <text x="268" y="110" font-family="monospace" font-size="9" fill="#f0883e" opacity="0.6">touch  mkdir</text>
  <!-- Accent bar -->
  <rect x="180" y="152" width="280" height="4" fill="#f0883e" opacity="0.8" rx="1.5"/>
</svg>
