<svg xmlns="http://www.w3.org/2000/svg" viewBox="0 0 640 160" width="640" height="160">
  <defs>
    <linearGradient id="bg" x1="0" y1="0" x2="1" y2="1">
      <stop offset="0%" stop-color="#0d1117"/>
      <stop offset="100%" stop-color="#161b22"/>
    </linearGradient>
  </defs>
  <rect width="640" height="160" fill="url(#bg)" rx="8"/>
  <!-- Decorative elements -->
  <circle cx="80" cy="60" r="2" fill="#58a6ff" opacity="0.4"/><circle cx="95" cy="45" r="1.5" fill="#58a6ff" opacity="0.35"/><circle cx="70" cy="100" r="1" fill="#58a6ff" opacity="0.35"/>
  <circle cx="560" cy="60" r="2" fill="#58a6ff" opacity="0.4"/><circle cx="545" cy="100" r="1.5" fill="#58a6ff" opacity="0.35"/><circle cx="570" cy="45" r="1" fill="#58a6ff" opacity="0.35"/>
  <!-- Icon -->
  
  <!-- Distro circles -->
  <circle cx="280" cy="70" r="22" fill="none" stroke="#f0883e" stroke-width="2" opacity="0.9"/>
  <circle cx="320" cy="55" r="22" fill="none" stroke="#3fb950" stroke-width="2" opacity="0.9"/>
  <circle cx="360" cy="70" r="22" fill="none" stroke="#bc8cff" stroke-width="2" opacity="0.9"/>
  <!-- Connection lines -->
  <line x1="280" y1="92" x2="280" y2="105" stroke="#f0883e" stroke-width="1.5" opacity="0.6"/>
  <line x1="320" y1="77" x2="320" y2="105" stroke="#3fb950" stroke-width="1.5" opacity="0.6"/>
  <line x1="360" y1="92" x2="360" y2="105" stroke="#bc8cff" stroke-width="1.5" opacity="0.6"/>
  <!-- Base line -->
  <line x1="260" y1="105" x2="380" y2="105" stroke="#30363d" stroke-width="1.5"/>
  <!-- Dots inside circles -->
  <circle cx="280" cy="70" r="4" fill="#f0883e" opacity="0.7"/>
  <circle cx="320" cy="55" r="4" fill="#3fb950" opacity="0.7"/>
  <circle cx="360" cy="70" r="4" fill="#bc8cff" opacity="0.7"/>
  <!-- Accent bar -->
  <rect x="180" y="152" width="280" height="4" fill="#58a6ff" opacity="0.8" rx="1.5"/>
</svg>
