<svg xmlns="http://www.w3.org/2000/svg" viewBox="0 0 640 160" width="640" height="160">
  <defs>
    <linearGradient id="bg" x1="0" y1="0" x2="1" y2="1">
      <stop offset="0%" stop-color="#0d1117"/>
      <stop offset="100%" stop-color="#161b22"/>
    </linearGradient>
  </defs>
  <rect width="640" height="160" fill="url(#bg)" rx="8"/>
  <!-- Decorative elements -->
  <circle cx="80" cy="60" r="2" fill="#3fb950" opacity="0.15"/><circle cx="95" cy="45" r="1.5" fill="#3fb950" opacity="0.1"/><circle cx="70" cy="100" r="1" fill="#3fb950" opacity="0.12"/>
  <circle cx="560" cy="60" r="2" fill="#3fb950" opacity="0.15"/><circle cx="545" cy="100" r="1.5" fill="#3fb950" opacity="0.1"/><circle cx="570" cy="45" r="1" fill="#3fb950" opacity="0.12"/>
  <!-- Icon -->
  
  <!-- HJKL keys -->
  <rect x="278" y="55" width="24" height="24" rx="4" fill="#21262d" stroke="#3fb950" stroke-width="1.5"/>
  <text x="286" y="72" font-family="monospace" font-size="12" fill="#3fb950">h</text>
  <rect x="308" y="35" width="24" height="24" rx="4" fill="#21262d" stroke="#3fb950" stroke-width="1.5"/>
  <text x="317" y="52" font-family="monospace" font-size="12" fill="#3fb950">k</text>
  <rect x="308" y="55" width="24" height="24" rx="4" fill="#21262d" stroke="#58a6ff" stroke-width="1.5"/>
  <text x="317" y="72" font-family="monospace" font-size="12" fill="#58a6ff">j</text>
  <rect x="338" y="55" width="24" height="24" rx="4" fill="#21262d" stroke="#3fb950" stroke-width="1.5"/>
  <text x="348" y="72" font-family="monospace" font-size="12" fill="#3fb950">l</text>
  <!-- Direction arrows -->
  <text x="283" y="46" font-family="monospace" font-size="10" fill="#3fb950" opacity="0.3">←</text>
  <text x="343" y="46" font-family="monospace" font-size="10" fill="#3fb950" opacity="0.3">→</text>
  <text x="313" y="28" font-family="monospace" font-size="10" fill="#3fb950" opacity="0.3">↑</text>
  <text x="313" y="98" font-family="monospace" font-size="10" fill="#58a6ff" opacity="0.3">↓</text>
  <!-- Search -->
  <text x="288" y="118" font-family="monospace" font-size="9" fill="#f0883e" opacity="0.25">/search  :wq</text>
  <!-- Accent bar -->
  <rect x="220" y="152" width="200" height="3" fill="#3fb950" opacity="0.5" rx="1.5"/>
</svg>
