<svg xmlns="http://www.w3.org/2000/svg" viewBox="0 0 640 160" width="640" height="160">
  <defs>
    <linearGradient id="bg" x1="0" y1="0" x2="1" y2="1">
      <stop offset="0%" stop-color="#0d1117"/>
      <stop offset="100%" stop-color="#161b22"/>
    </linearGradient>
  </defs>
  <rect width="640" height="160" fill="url(#bg)" rx="8"/>
  <!-- Decorative elements -->
  <circle cx="80" cy="60" r="2" fill="#3fb950" opacity="0.4"/><circle cx="95" cy="45" r="1.5" fill="#3fb950" opacity="0.35"/><circle cx="70" cy="100" r="1" fill="#3fb950" opacity="0.35"/>
  <circle cx="560" cy="60" r="2" fill="#3fb950" opacity="0.4"/><circle cx="545" cy="100" r="1.5" fill="#3fb950" opacity="0.35"/><circle cx="570" cy="45" r="1" fill="#3fb950" opacity="0.35"/>
  <!-- Icon -->
  
  <!-- Editor frame -->
  <rect x="270" y="30" width="100" height="75" rx="4" fill="#161b22" stroke="#30363d" stroke-width="1.5"/>
  <!-- Top bar -->
  <rect x="270" y="30" width="100" height="14" rx="4" fill="#21262d"/>
  <rect x="270" y="38" width="100" height="6" fill="#21262d"/>
  <text x="290" y="42" font-family="monospace" font-size="8" fill="#e6edf3">GNU nano</text>
  <!-- Content lines -->
  <line x1="278" y1="56" x2="348" y2="56" stroke="#e6edf3" stroke-width="1.5" opacity="0.7"/>
  <line x1="278" y1="66" x2="335" y2="66" stroke="#e6edf3" stroke-width="1.5" opacity="0.6"/>
  <line x1="278" y1="76" x2="342" y2="76" stroke="#e6edf3" stroke-width="1.5" opacity="0.45"/>
  <!-- Bottom shortcuts -->
  <rect x="270" y="94" width="100" height="11" fill="#21262d"/>
  <text x="276" y="103" font-family="monospace" font-size="6" fill="#e6edf3" opacity="0.8">^O Save  ^X Exit</text>
  <!-- Accent bar -->
  <rect x="180" y="152" width="280" height="4" fill="#3fb950" opacity="0.8" rx="1.5"/>
</svg>
