<svg xmlns="http://www.w3.org/2000/svg" viewBox="0 0 640 160" width="640" height="160">
  <defs>
    <linearGradient id="bg" x1="0" y1="0" x2="1" y2="1">
      <stop offset="0%" stop-color="#0d1117"/>
      <stop offset="100%" stop-color="#161b22"/>
    </linearGradient>
  </defs>
  <rect width="640" height="160" fill="url(#bg)" rx="8"/>
  <!-- Decorative elements -->
  <circle cx="80" cy="60" r="2" fill="#bc8cff" opacity="0.4"/><circle cx="95" cy="45" r="1.5" fill="#bc8cff" opacity="0.35"/><circle cx="70" cy="100" r="1" fill="#bc8cff" opacity="0.35"/>
  <circle cx="560" cy="60" r="2" fill="#bc8cff" opacity="0.4"/><circle cx="545" cy="100" r="1.5" fill="#bc8cff" opacity="0.35"/><circle cx="570" cy="45" r="1" fill="#bc8cff" opacity="0.35"/>
  <!-- Icon -->
  
  <!-- Chart bars -->
  <rect x="275" y="75" width="16" height="35" rx="2" fill="#3fb950" opacity="0.8"/>
  <rect x="297" y="55" width="16" height="55" rx="2" fill="#58a6ff" opacity="0.8"/>
  <rect x="319" y="40" width="16" height="70" rx="2" fill="#bc8cff" opacity="0.8"/>
  <rect x="341" y="65" width="16" height="45" rx="2" fill="#f0883e" opacity="0.8"/>
  <rect x="363" y="80" width="16" height="30" rx="2" fill="#3fb950" opacity="0.7"/>
  <!-- Baseline -->
  <line x1="268" y1="110" x2="386" y2="110" stroke="#30363d" stroke-width="1.5"/>
  <!-- CPU label -->
  <text x="298" y="128" font-family="monospace" font-size="9" fill="#bc8cff" opacity="0.6">CPU %</text>
  <!-- Accent bar -->
  <rect x="180" y="152" width="280" height="4" fill="#bc8cff" opacity="0.8" rx="1.5"/>
</svg>
